<?xml version="1.0" encoding="utf-8"?>
<!-- Generator: Adobe Illustrator 16.0.0, SVG Export Plug-In . SVG Version: 6.00 Build 0)  -->
<!DOCTYPE svg PUBLIC "-//W3C//DTD SVG 1.1//EN" "http://www.w3.org/Graphics/SVG/1.1/DTD/svg11.dtd">
<svg version="1.1" id="Capa_1" xmlns="http://www.w3.org/2000/svg" xmlns:xlink="http://www.w3.org/1999/xlink" x="0px" y="0px"
	 width="269px" height="269px" viewBox="0 0 269 269" enable-background="new 0 0 269 269" xml:space="preserve">
<g>
	<path fill="#016037" d="M134.5,151.71c18.559,0,62.196-22.336,62.196-75.856C196.695,33.961,191.041,0,134.5,0
		C77.96,0,72.305,33.961,72.305,75.855C72.305,129.374,115.94,151.71,134.5,151.71z M81.6,63.194
		c4.37-8.449,13.819-18.212,34.143-17.779c0,0,12.114,29.383,71.583,16.188c0.24,4.694,0.315,9.482,0.315,14.252
		c0,26.16-11.552,42.369-21.242,51.36c-12.21,11.33-25.767,15.441-31.899,15.441c-6.133,0-19.689-4.111-31.899-15.441
		c-9.691-8.991-21.242-25.2-21.242-51.36C81.358,71.623,81.419,67.376,81.6,63.194z"/>
	<path fill="#016037" d="M249.967,229.504c-3.176-19.743-9.712-45.177-22.824-54.215c-8.954-6.174-40.194-22.863-53.535-29.99
		l-0.225-0.121c-1.525-0.814-3.387-0.65-4.746,0.417c-6.988,5.485-14.643,9.183-22.752,10.988c-1.39,0.31-2.541,1.278-3.084,2.596
		L134.5,179.34l-8.301-20.161c-0.542-1.317-1.694-2.286-3.084-2.596c-8.108-1.806-15.763-5.503-22.751-10.988
		c-1.361-1.067-3.222-1.231-4.747-0.417c-13.181,7.045-44.802,24.075-53.72,30.086c-15.094,10.168-21.693,46.967-22.863,54.241
		c-0.116,0.722-0.049,1.459,0.194,2.147c0.541,1.525,14.393,37.349,115.272,37.349s114.732-35.823,115.272-37.349
		C250.016,230.963,250.083,230.225,249.967,229.504z M122.827,217.516c0,0.305-0.18,0.582-0.461,0.704l-12.443,5.45l12.443,5.45
		c0.28,0.122,0.461,0.399,0.461,0.704v4.078c0,0.263-0.134,0.507-0.355,0.648c-0.125,0.08-0.27,0.121-0.414,0.121
		c-0.111,0-0.221-0.023-0.325-0.072l-18.464-8.578c-0.271-0.125-0.445-0.398-0.445-0.697v-3.308c0-0.3,0.174-0.573,0.445-0.698
		l18.464-8.578c0.239-0.109,0.517-0.092,0.739,0.05s0.355,0.386,0.355,0.649V217.516L122.827,217.516z M141.604,207.771
		l-8.232,27.889c-0.096,0.326-0.397,0.552-0.737,0.552h-3.886c-0.242,0-0.47-0.115-0.616-0.31c-0.145-0.194-0.19-0.444-0.122-0.678
		l8.231-27.889c0.097-0.327,0.397-0.552,0.738-0.552h3.886c0.241,0,0.47,0.114,0.616,0.308
		C141.627,207.285,141.673,207.537,141.604,207.771z M166.176,225.439c0,0.302-0.176,0.574-0.449,0.699l-18.465,8.463
		c-0.102,0.047-0.21,0.07-0.319,0.07c-0.145,0-0.29-0.041-0.415-0.121c-0.221-0.143-0.354-0.387-0.354-0.648v-4.078
		c0-0.307,0.183-0.586,0.466-0.707l12.711-5.447l-12.711-5.447c-0.283-0.121-0.466-0.4-0.466-0.707v-4.078
		c0-0.262,0.134-0.506,0.354-0.647s0.498-0.161,0.734-0.052l18.465,8.463c0.273,0.125,0.449,0.398,0.449,0.699V225.439z"/>
	<path fill="#016037" d="M122.538,96.955c6.992-3.648,9.406-15.832,9.51-16.376c0.002-0.008,0.222-0.817,2.442-0.817l0.177-0.001
		c1.713,0,2.248,0.563,2.301,0.944c0.104,0.515,2.611,12.657,9.491,16.25c4.634,2.419,10.174,2.926,14.005,2.926
		c4.913,0,9.848-0.86,12.281-2.142c5.246-2.763,5.713-4.761,7.619-16.338c0.072-0.437,0.195-0.805,0.368-1.094
		c0.054-0.091,0.147-0.194,0.277-0.337c0.502-0.541,1.26-1.359,1.214-3.255c-0.006-0.239,0.004-0.651,0.014-1.11l0.003-0.11
		c0.019-0.806,0.036-1.709,0.007-2.226c-0.166-2.842-2.631-3.987-3.879-4.19c-4.708-0.968-10.022-1.458-15.795-1.458
		c-2.49,0-5.062,0.094-7.645,0.279l-0.452,0.032c-5.261,0.372-8.159,0.577-11.683,2.155c-0.713,0.319-1.505,0.703-2.356,1.14
		c-1.21,0.624-3.009,1.321-3.93,1.523c-1.552,0.342-2.47,0.343-4.023-0.001c-0.916-0.202-2.715-0.899-3.928-1.522
		c-0.853-0.438-1.646-0.822-2.355-1.14c-3.522-1.578-6.421-1.782-11.689-2.156l-0.443-0.031c-2.578-0.184-5.147-0.278-7.638-0.278
		c-5.78,0-11.084,0.489-15.739,1.446c-1.291,0.211-3.773,1.362-3.94,4.198c-0.032,0.521-0.011,1.468,0.006,2.224l0.006,0.333
		c0.008,0.371,0.014,0.694,0.009,0.892c-0.046,1.899,0.711,2.716,1.232,3.279c0.115,0.126,0.208,0.227,0.261,0.317
		c0.17,0.284,0.293,0.652,0.366,1.093c1.909,11.575,2.375,13.575,7.619,16.337c2.429,1.281,7.365,2.142,12.283,2.142
		C112.364,99.881,117.902,99.374,122.538,96.955z M142.648,76.628c0.125-0.309,1.593-3.04,14.535-3.793
		c2.238-0.13,4.129-0.193,5.781-0.193c7.208,0,9.455,1.225,10.746,3.199c0.77,1.181,1.313,3.778,1.318,5.371
		c0.017,3.612-0.687,10.025-5.574,12.395c-2.312,1.119-5.801,1.788-9.334,1.788c-6.719,0-12.061-2.235-14.287-5.981
		C141.029,81.343,142.635,76.666,142.648,76.628z M93.967,81.214c0.007-1.597,0.55-4.197,1.318-5.374
		c1.291-1.975,3.538-3.2,10.745-3.2c1.655,0,3.546,0.063,5.781,0.194c12.677,0.739,14.364,3.369,14.563,3.858
		c0.016,0.047,1.522,4.771-3.208,12.722c-2.229,3.746-7.57,5.981-14.287,5.981c-3.534,0-7.024-0.668-9.336-1.788
		C94.657,91.24,93.952,84.827,93.967,81.214z"/>
</g>
</svg>
